<svg width="265" height="260" viewBox="0 0 265 260" fill="none" xmlns="http://www.w3.org/2000/svg">
<path fill-rule="evenodd" clip-rule="evenodd" d="M113.807 55.8078C154.975 45.6312 196.598 70.755 206.775 111.923C216.951 153.091 191.827 194.714 150.66 204.89C142.643 206.872 134.61 207.514 126.795 206.96C124.662 206.809 122.57 207.639 121.139 209.227C117.199 213.599 111.54 219.054 104.249 224.02C96.9471 228.993 88.517 232.466 81.6634 234.745C76.5209 236.454 72.3747 230.99 74.6241 226.06C77.0156 220.818 79.4121 214.728 80.4258 209.55C81.553 203.791 81.5242 196.328 81.197 190.175C81.1239 188.801 80.7833 187.374 79.7781 186.436C69.2733 176.629 61.398 163.766 57.6923 148.775C47.5159 107.607 72.639 65.9845 113.807 55.8078Z" fill="#5571DE"/>
<path fill-rule="evenodd" clip-rule="evenodd" d="M166.709 23.2932C168.35 21.0779 171.24 20.1587 173.823 21.1242C178.792 22.9818 183.756 25.1928 189.264 28.3415C191.615 29.6851 192.741 32.4341 192.136 35.0727L188.653 50.2556C188.084 52.736 189.064 55.301 191.056 56.8859C194.727 59.8087 198.173 63.0004 201.365 66.433C203.098 68.2969 205.731 69.0773 208.161 68.3191L222.816 63.7459C225.448 62.9246 228.325 63.8862 229.842 66.1888C232.759 70.6192 235.463 75.3322 238.055 81.1235C239.161 83.5945 238.45 86.4795 236.405 88.2536L224.978 98.1669C223.044 99.8453 222.327 102.517 223.021 104.982C224.348 109.694 225.303 114.492 225.881 119.329C226.186 121.88 227.882 124.078 230.322 124.881L244.842 129.657C247.461 130.518 249.243 132.973 249.138 135.728C248.937 141.029 248.398 146.436 247.141 152.655C246.605 155.309 244.349 157.243 241.654 157.498L226.171 158.962C223.646 159.201 221.525 160.927 220.641 163.304C218.935 167.889 216.88 172.315 214.505 176.547C213.248 178.784 213.321 181.555 214.814 183.641L223.768 196.149C225.372 198.391 225.361 201.424 223.65 203.586C220.357 207.745 216.729 211.791 212.041 216.067C210.042 217.891 207.079 218.12 204.754 216.734L191.355 208.75C189.175 207.451 186.441 207.593 184.324 208.992C183.725 209.388 183.121 209.778 182.512 210.16C179.037 212.343 175.44 214.284 171.747 215.98C169.405 217.056 167.831 219.355 167.824 221.932L167.783 237.508C167.776 240.266 165.994 242.72 163.342 243.475C158.24 244.927 152.932 246.09 146.629 246.823C143.94 247.135 141.402 245.59 140.324 243.106L133.934 228.382C132.93 226.068 130.648 224.588 128.127 224.472C126.736 224.408 125.345 224.313 123.954 224.186C120.463 223.869 118.106 220.593 118.657 217.132L119.458 212.111C120.01 208.65 123.264 206.319 126.758 206.581C142.964 207.798 159.199 203.81 173.055 195.107C188.708 185.275 200.26 170.093 205.563 152.386C210.866 134.678 209.56 115.648 201.889 98.8301C194.217 82.0125 180.701 68.5515 163.852 60.9488C147.004 53.3461 127.968 52.1186 110.282 57.4943C92.5959 62.8701 77.4626 74.4834 67.6946 90.1766C57.9266 105.87 54.1877 124.576 57.1728 142.818C59.8152 158.965 67.5669 173.777 79.2023 185.122C81.7112 187.569 82.1166 191.55 79.887 194.254L76.6506 198.178C74.4208 200.882 70.4048 201.281 67.8577 198.874C66.2482 197.353 64.6963 195.779 63.2046 194.156C61.4648 192.263 58.8008 191.471 56.35 192.249L41.498 196.965C38.8701 197.799 35.9885 196.851 34.4609 194.556C31.5218 190.139 28.7945 185.439 26.1742 179.661C25.0563 177.195 25.7526 174.306 27.7888 172.522L39.7704 162.025C41.6734 160.358 42.3854 157.724 41.7186 155.284C40.8588 152.136 40.1592 148.934 39.6281 145.688C39.3917 144.244 39.1893 142.797 39.0211 141.349C38.7275 138.821 37.0668 136.633 34.6596 135.806L19.8037 130.702C17.1962 129.806 15.4471 127.328 15.5879 124.575C15.8588 119.277 16.4681 113.877 17.8069 107.675C18.3781 105.029 20.6582 103.124 23.3563 102.904L38.8299 101.645C41.3789 101.438 43.5363 99.7133 44.4379 97.3201C46.1086 92.8856 48.1186 88.5636 50.4616 84.3952C51.7067 82.1798 51.6498 79.4391 50.1929 77.3568L41.128 64.3999C39.5475 62.1407 39.5929 59.1075 41.3276 56.9645C44.6654 52.8414 48.3368 48.8357 53.0701 44.6101C55.0896 42.8072 58.0543 42.6104 60.3648 44.0214L73.6401 52.1287C75.8256 53.4632 78.5881 53.3361 80.7267 51.9276C84.73 49.2907 88.9403 46.9564 93.3234 44.9504C95.6446 43.8881 97.216 41.6238 97.2525 39.0713L97.473 23.5685C97.5123 20.8118 99.3226 18.3785 101.983 17.6549C107.102 16.2627 112.423 15.1607 118.734 14.5016C121.426 14.2204 123.947 15.7948 124.995 18.2906L130.983 32.5381C131.971 34.8901 134.274 36.4017 136.822 36.5196C141.526 36.7373 146.212 37.3077 150.84 38.2288C153.349 38.7283 155.954 37.8082 157.477 35.7524L166.709 23.2932Z" fill="#322C74"/>
</svg>
